<svg viewBox="1346 787 256 256" version="1.1" xmlns="http://www.w3.org/2000/svg" xmlns:xlink="http://www.w3.org/1999/xlink" xmlns:penpot="https://penpot.app/xmlns" style="width:100%;height:100%;background:#E8E9EA" fill="none"><penpot:page id="c7f5b922-4c2a-81ba-8002-a529a014d0c8"></penpot:page><g id="shape-454d5f38-fdd8-80c8-8002-a52aa3467c64"><penpot:shape penpot:name="Rectangle" penpot:hidden="false" penpot:type="rect" penpot:transform="matrix(1.000000, 0.000000, 0.000000, 1.000000, 0.000000, 0.000000)" penpot:transform-inverse="matrix(1.000000, 0.000000, 0.000000, 1.000000, 0.000000, 0.000000)" penpot:proportion="1" penpot:proportion-lock="false" penpot:rotation="0" penpot:center-x="1474" penpot:center-y="915"><penpot:export penpot:type="svg" penpot:suffix="jellyseerr" penpot:scale="1"></penpot:export><penpot:fills><penpot:fill penpot:fill-color="#000b25" penpot:fill-opacity="1"></penpot:fill></penpot:fills><penpot:layout-item penpot:layout-item-h-sizing="fix" penpot:layout-item-v-sizing="fix"></penpot:layout-item></penpot:shape><defs></defs><g class="fills" id="fills-454d5f38-fdd8-80c8-8002-a52aa3467c64"><rect rx="0" ry="0" style="fill:#000b25;fill-opacity:1" x="1346" y="787" transform="matrix(1.000000, 0.000000, 0.000000, 1.000000, 0.000000, 0.000000)" width="256" height="256"></rect></g></g><g id="shape-454d5f38-fdd8-80c8-8002-a529d4089327" style="fill:#000000" enable-background="new 0 0 96 96" xmlns:xlink="http://www.w3.org/1999/xlink" rx="0" ry="0"><penpot:shape penpot:name="jellyseerr" penpot:type="group" penpot:transform="matrix(1.000000, 0.000000, 0.000000, 1.000000, 0.000000, 0.000000)" penpot:transform-inverse="matrix(1.000000, 0.000000, 0.000000, 1.000000, 0.000000, 0.000000)" penpot:proportion="1" penpot:proportion-lock="false" penpot:rotation="0" penpot:center-x="1473.1158478710115" penpot:center-y="918.5800521567164"><penpot:svg-import penpot:svg-attrs="enable-background,xmlns:xlink"></penpot:svg-import></penpot:shape><defs></defs><g id="shape-454d5f38-fdd8-80c8-8002-a529d40a0920"><penpot:shape penpot:name="svg-path" penpot:type="path" penpot:transform="matrix(1.000000, 0.000000, 0.000000, 1.000000, 0.000000, 0.000000)" penpot:transform-inverse="matrix(1.000000, 0.000000, 0.000000, 1.000000, 0.000000, 0.000000)" penpot:proportion="1" penpot:proportion-lock="false" penpot:rotation="0" penpot:center-x="1455.9999999999998" penpot:center-y="835.9333333333334"><penpot:svg-import penpot:svg-viewbox-x="34.8" penpot:svg-viewbox-y="21.7" penpot:svg-viewbox-width="12.899999999999999" penpot:svg-attrs="style" penpot:svg-viewbox-height="5.300000000000001" penpot:svg-transform="matrix(1.000000, 0.000000, 0.000000, 1.000000, 0.000000, 0.000000)" penpot:svg-style=""></penpot:svg-import><penpot:fills><penpot:fill penpot:fill-color="#ffffff"></penpot:fill></penpot:fills></penpot:shape><defs></defs><g class="fills" id="fills-454d5f38-fdd8-80c8-8002-a529d40a0920"><path rx="0" ry="0" style="fill:#ffffff" d="M1438.800,828.867L1473.200,828.867L1473.200,843.000L1438.800,843.000Z"></path></g></g><g id="shape-454d5f38-fdd8-80c8-8002-a529d40b7f1e"><penpot:shape penpot:name="svg-path" penpot:type="path" penpot:transform="matrix(1.000000, 0.000000, 0.000000, 1.000000, 0.000000, 0.000000)" penpot:transform-inverse="matrix(1.000000, 0.000000, 0.000000, 1.000000, 0.000000, 0.000000)" penpot:proportion="1" penpot:proportion-lock="false" penpot:rotation="0" penpot:center-x="1473.1158478710115" penpot:center-y="918.5800521567164"><penpot:svg-import penpot:svg-viewbox-x="12.909135041108652" penpot:svg-viewbox-y="17" penpot:svg-viewbox-width="69.5186158210414" penpot:svg-attrs="fill" penpot:svg-defs="b" penpot:svg-viewbox-height="76.4" penpot:svg-transform="matrix(1.000000, 0.000000, 0.000000, 1.000000, 0.000000, 0.000000)"><penpot:svg-def def-id="b"><linearGradient x1="-178.075" y1="163.402" x2="-111.501" y2="124.966" id="b" gradientTransform="matrix(1 0 0 -1 194 202)" gradientUnits="userSpaceOnUse"><stop offset="0" stop-color="#fff"></stop><stop offset="0" stop-color="#a85dc3"></stop><stop offset=".15" stop-color="#9863c5"></stop><stop offset=".43" stop-color="#6f74cb"></stop><stop offset=".83" stop-color="#2d90d5"></stop><stop offset="1" stop-color="#0f9dda"></stop></linearGradient></penpot:svg-def></penpot:svg-import></penpot:shape><defs><linearGradient x1="-178.075" y1="163.402" x2="-111.501" y2="124.966" id="rumext-id-32-b" gradientTransform="matrix(2.666667, 0.000000, 0.000000, 2.676616, 1346.000000, 770.830867) matrix(1 0 0 -1 194 202)" gradientUnits="userSpaceOnUse"><stop offset="0" stop-color="#fff"></stop><stop offset="0" stop-color="#a85dc3"></stop><stop offset=".15" stop-color="#9863c5"></stop><stop offset=".43" stop-color="#6f74cb"></stop><stop offset=".83" stop-color="#2d90d5"></stop><stop offset="1" stop-color="#0f9dda"></stop></linearGradient></defs><g class="fills" id="fills-454d5f38-fdd8-80c8-8002-a529d40b7f1e"><path fill="url(#rumext-id-32-b)" rx="0" ry="0" style="fill:url(#rumext-id-32-b)" d="M1565.733,908.067C1564.667,861.133,1520.400,816.867,1474.533,816.333C1428.133,815.800,1383.067,859.000,1380.667,905.667C1379.600,927.533,1381.200,929.667,1403.333,933.400C1404.983,950.267,1403.500,972.000,1387.500,988.000C1385.784,989.716,1390.774,995.598,1396.500,989.500C1404.603,980.870,1414.137,956.990,1413.200,944.333C1412.133,929.933,1416.133,923.267,1431.600,924.067C1434.000,952.867,1427.867,967.000,1415.867,993.933C1415.006,995.777,1411.096,1000.951,1411.500,1004.000C1411.624,1004.940,1415.748,1008.624,1419.000,1006.000C1422.685,1003.027,1425.566,993.554,1426.000,992.067C1432.933,967.533,1438.800,955.267,1441.200,929.667C1442.000,919.800,1444.933,916.067,1455.867,918.467C1459.600,949.667,1452.667,966.200,1443.067,996.333C1441.983,999.854,1436.378,1008.455,1436.500,1013.000C1436.567,1015.513,1441.121,1017.718,1444.500,1015.500C1447.046,1013.829,1448.512,1008.185,1449.200,1006.467C1460.933,976.333,1468.133,958.733,1466.000,926.733C1465.200,915.000,1469.733,912.867,1478.800,916.333C1480.133,939.267,1475.867,947.267,1478.533,969.400C1479.967,982.300,1487.000,1006.000,1493.000,1018.500C1494.261,1021.126,1499.997,1023.050,1500.500,1015.500C1501.000,1008.000,1492.867,991.402,1491.917,985.326C1488.800,965.383,1489.133,942.967,1489.467,918.467C1501.200,916.067,1504.400,919.267,1504.933,929.400C1506.267,952.067,1503.067,960.600,1507.600,982.733C1508.912,988.858,1515.197,1004.479,1520.500,1010.000C1522.457,1012.037,1526.967,1011.391,1526.500,1007.500C1525.919,1002.653,1519.930,993.741,1518.585,989.990C1511.883,971.292,1513.804,949.508,1514.000,923.267C1532.933,927.000,1531.333,927.267,1532.933,943.267C1535.067,963.533,1536.400,966.200,1541.733,985.933C1542.158,987.208,1545.154,994.377,1548.500,996.000C1549.930,996.694,1553.860,996.399,1553.500,991.500C1553.117,986.285,1548.361,976.341,1547.227,973.487C1540.899,957.552,1540.106,947.306,1543.867,932.067C1564.400,930.467,1566.267,928.333,1565.733,908.067ZL1565.733,908.067ZM1398.267,907.267C1392.933,884.067,1412.933,848.333,1431.333,845.667C1420.667,865.400,1409.467,886.467,1398.267,907.267ZL1398.267,907.267ZM1440.400,843.533C1439.867,841.133,1439.067,838.733,1438.533,836.333C1449.467,833.667,1460.400,831.000,1471.333,828.333L1473.200,835.533C1462.000,838.200,1451.067,840.867,1440.400,843.533ZL1440.400,843.533Z"></path></g></g><g id="shape-454d5f38-fdd8-80c8-8002-a529d40b7f1f"><penpot:shape penpot:name="svg-path" penpot:type="path" penpot:transform="matrix(1.000000, 0.000000, 0.000000, 1.000000, 0.000000, 0.000000)" penpot:transform-inverse="matrix(1.000000, 0.000000, 0.000000, 1.000000, 0.000000, 0.000000)" penpot:proportion="1" penpot:proportion-lock="false" penpot:rotation="0" penpot:center-x="1414.3617520992555" penpot:center-y="876.4666666666669"><penpot:svg-import penpot:svg-viewbox-x="19.271314074441733" penpot:svg-viewbox-y="28" penpot:svg-viewbox-width="12.728685925558267" penpot:svg-attrs="style" penpot:svg-viewbox-height="23.1" penpot:svg-transform="matrix(1.000000, 0.000000, 0.000000, 1.000000, 0.000000, 0.000000)" penpot:svg-style=""></penpot:svg-import><penpot:fills><penpot:fill penpot:fill-color="#ffffff"></penpot:fill></penpot:fills></penpot:shape><defs></defs><g class="fills" id="fills-454d5f38-fdd8-80c8-8002-a529d40b7f1f"><path rx="0" ry="0" style="fill:#ffffff" d="M1398.267,907.267C1392.933,884.067,1412.933,848.333,1431.333,845.667C1420.667,865.400,1409.467,886.467,1398.267,907.267ZZ"></path></g></g><g id="shape-454d5f38-fdd8-80c8-8002-a529d40bbb35"><penpot:shape penpot:name="svg-path" penpot:type="path" penpot:transform="matrix(1.000000, 0.000000, 0.000000, 1.000000, 0.000000, 0.000000)" penpot:transform-inverse="matrix(1.000000, 0.000000, 0.000000, 1.000000, 0.000000, 0.000000)" penpot:proportion="1" penpot:proportion-lock="false" penpot:rotation="0" penpot:center-x="1474" penpot:center-y="871.5333333333338"><penpot:svg-import penpot:svg-viewbox-x="40.5" penpot:svg-viewbox-y="30.199999999999996" penpot:svg-viewbox-width="15" penpot:svg-attrs="clip-rule,fill-rule,style" penpot:svg-viewbox-height="15" penpot:svg-transform="matrix(1.000000, 0.000000, 0.000000, 1.000000, 0.000000, 0.000000)" penpot:svg-style=""></penpot:svg-import><penpot:fills><penpot:fill penpot:fill-color="#1d1d1b"></penpot:fill></penpot:fills></penpot:shape><defs></defs><g class="fills" id="fills-454d5f38-fdd8-80c8-8002-a529d40bbb35"><path clip-rule="evenodd" fill-rule="evenodd" rx="0" ry="0" style="fill:#1d1d1b" d="M1474.000,851.533C1469.733,851.533,1465.733,852.867,1462.533,855.267L1463.867,855.267C1469.467,855.267,1474.000,859.800,1474.000,865.400C1474.000,871.000,1469.467,875.000,1463.867,875.000C1459.333,875.000,1455.333,872.067,1454.267,867.800C1454.000,868.867,1454.000,870.200,1454.000,871.533C1454.000,882.467,1463.067,891.533,1474.000,891.533C1484.933,891.533,1494.000,882.467,1494.000,871.533C1494.000,860.600,1484.933,851.533,1474.000,851.533ZZ"></path></g></g><g id="shape-454d5f38-fdd8-80c8-8002-a529d40bdec7"><penpot:shape penpot:name="svg-circle" penpot:type="circle" penpot:transform="matrix(1.000000, 0.000000, 0.000000, 1.000000, 0.000000, 0.000000)" penpot:transform-inverse="matrix(1.000000, 0.000000, 0.000000, 1.000000, 0.000000, 0.000000)" penpot:proportion="1" penpot:proportion-lock="false" penpot:rotation="0" penpot:center-x="1464.1333333333332" penpot:center-y="864.6000000000001"><penpot:svg-import penpot:svg-viewbox-x="40.599999999999994" penpot:svg-viewbox-y="31.400000000000002" penpot:svg-viewbox-width="7.4" penpot:svg-attrs="style" penpot:svg-viewbox-height="7.4" penpot:svg-style=""></penpot:svg-import><penpot:fills><penpot:fill penpot:fill-color="#ffffff"></penpot:fill></penpot:fills></penpot:shape><defs></defs><g class="fills" id="fills-454d5f38-fdd8-80c8-8002-a529d40bdec7"><ellipse rx="9.866666666666788" ry="9.86666666666656" style="fill:#ffffff" cx="1464.1333333333332" cy="864.6000000000001" transform="matrix(1.000000, 0.000000, 0.000000, 1.000000, 0.000000, 0.000000)"></ellipse></g></g></g></svg>